<svg width="528" height="490" viewBox="0 0 528 490" fill="none" xmlns="http://www.w3.org/2000/svg">
<path fill-rule="evenodd" clip-rule="evenodd" d="M261.117 484.163C369.254 484.163 456.917 396.577 456.917 288.535C456.917 180.492 369.254 92.9064 261.117 92.9064C152.979 92.9064 65.3164 180.492 65.3164 288.535C65.3164 396.577 152.979 484.163 261.117 484.163Z" fill="#ABAADD"/>
<mask id="mask0_2_3043" style="mask-type:luminance" maskUnits="userSpaceOnUse" x="0" y="0" width="528" height="490">
<path fill-rule="evenodd" clip-rule="evenodd" d="M261.117 484.163C350.85 484.163 426.485 423.854 449.631 341.591C454.378 324.719 528 269.088 528 250.7C528 142.657 369.254 0 261.117 0C152.979 0 -72.3255 437.686 22.9506 484.163C79.8564 511.923 117.186 421.584 124.776 428.943C160.03 463.121 208.114 484.163 261.117 484.163Z" fill="white"/>
</mask>
<g mask="url(#mask0_2_3043)">
<path d="M293.948 41.9919C305.822 41.9922 315.448 51.6179 315.448 63.4919V79.156C322.058 104.529 330.174 157.521 321.491 165.998H265.271C265.271 165.983 265.27 165.969 265.269 165.955H249.71C237.836 165.955 228.21 156.329 228.21 144.455V63.4919C228.21 51.6178 237.836 41.9919 249.71 41.9919H293.948Z" fill="#1F0D05"/>
<path fill-rule="evenodd" clip-rule="evenodd" d="M272.673 135.437C285.227 142.997 297.561 146.65 303.351 145.159C317.87 141.42 319.205 88.3521 307.971 67.4312C296.737 46.5104 238.985 37.3917 236.074 78.8426C235.064 93.2289 241.11 106.068 250.043 116.544L234.026 191.134H280.553L272.673 135.437Z" fill="#BA8B72"/>
<path fill-rule="evenodd" clip-rule="evenodd" d="M229.918 79.0847C231.269 77.7501 232.576 76.4588 233.873 75.3031L233.81 73.7974C233.81 73.7974 248.413 43.9288 270.862 43.9288C293.291 43.9288 300.385 54.3469 306.414 63.2027L306.431 63.2265C303.277 74.0387 293.771 78.4131 283.021 83.3604C278.394 85.49 273.536 87.7258 268.854 90.6269C267.021 89.1384 264.682 88.2463 262.136 88.2463C256.247 88.2463 251.473 93.0158 251.473 98.8993C251.473 104.783 256.247 109.552 262.136 109.552C262.298 109.552 262.46 109.549 262.62 109.542C264.764 132.548 263.905 158.821 257.516 165.058H201.297C199.683 137.042 206.936 129.05 214.348 120.884C221.323 113.2 228.437 105.361 228.437 80.5419C228.938 80.0534 229.431 79.5663 229.918 79.0847Z" fill="#1F0D05"/>
<path fill-rule="evenodd" clip-rule="evenodd" d="M196.502 351.898C199.997 399.565 425.186 539.902 426.5 543.84C427.376 546.465 356.407 709.798 356.407 709.798L376.092 717.441C376.092 717.441 484.946 544.459 479.355 526.027C471.35 499.638 304.634 352.405 304.634 352.405L196.502 351.898Z" fill="#B28B67"/>
<path fill-rule="evenodd" clip-rule="evenodd" d="M361.588 685.207L393.726 696.895C461.496 620.499 488.059 557.464 483.216 525.348C478.372 493.231 309.097 352.015 309.097 352.015L194.197 352.015C198.118 462.404 406.84 544.26 409.631 548.964C412.423 553.668 384.949 599.74 361.588 685.207Z" fill="#101030"/>
<path fill-rule="evenodd" clip-rule="evenodd" d="M222.394 351.898L122.078 592.515L23.4836 795.937H46.7453L301.245 351.898H222.394Z" fill="#997659"/>
<path fill-rule="evenodd" clip-rule="evenodd" d="M32.3872 753.678L84.0749 763.363C124.04 704.659 291.294 463.952 309.632 351.898H194.563C133.324 432.902 70.4819 694.003 32.3872 753.678Z" fill="#191847"/>
<path fill-rule="evenodd" clip-rule="evenodd" d="M444.714 372.498L382.875 327.128L369.205 360.89L430.442 386.261C447.76 406.587 457.445 415.061 459.494 411.681C461.223 408.832 459.872 406.165 458.627 403.708C457.658 401.794 456.753 400.008 457.419 398.363C458.94 394.606 470.574 395.002 481.598 395.849C492.622 396.696 489.409 391.795 486.751 389.375C475.498 382.645 461.486 377.019 444.714 372.498ZM120.419 452.44C126.1 440.925 145.446 328.694 145.446 328.694L185.958 328.853C185.958 328.853 148.437 449.873 145.446 457.277C141.561 466.897 148.16 480.872 152.635 490.349C153.327 491.815 153.969 493.174 154.512 494.392C148.304 497.167 145.321 493.812 142.177 490.275C138.625 486.28 134.868 482.052 126.021 486.164C122.604 487.753 119.369 489.631 116.21 491.466C105.295 497.805 95.2688 503.628 81.6291 495.219C79.4667 493.886 77.097 488.867 82.8224 484.944C97.0862 475.173 117.641 458.07 120.419 452.44Z" fill="#915B3C"/>
<path fill-rule="evenodd" clip-rule="evenodd" d="M260.575 158.85L277.339 155.977C339.536 209.66 365.083 312.79 441.321 367.422L422.971 390.148C290.711 373.786 257.929 247.992 260.575 158.85Z" fill="#00101B"/>
<path fill-rule="evenodd" clip-rule="evenodd" d="M187.499 369.331C187.499 369.331 288.322 369.331 335.825 369.331C342.603 369.331 341.326 359.552 340.346 354.618C329.039 297.672 284.898 236.287 284.898 155.225L242.113 148.522C206.725 205.387 194.487 275.399 187.499 369.331Z" fill="#DDE3E9"/>
<path fill-rule="evenodd" clip-rule="evenodd" d="M170.821 410.006C164.154 426.002 157.618 439.96 151.458 450.681H119.647C116.225 340.119 158.12 255.046 193.182 203.749C185.397 203.193 178.37 199.939 173.929 191.931C158.291 163.739 163.938 148.217 180.65 143.115C189.84 140.309 198.482 142.224 208.828 144.517C217.294 146.392 226.901 148.521 238.88 148.522C238.884 148.522 238.888 148.522 238.892 148.522C240.053 148.522 241.109 148.6 242.068 148.749L256.265 149.558C256.265 149.558 313.907 344.742 288.059 410.006H170.821Z" fill="#00101B"/>
<path d="M197.167 339.218C200.38 367.08 205.73 395.065 214.639 410.006H170.821C179.568 389.017 188.536 364.518 197.167 339.218Z" fill="black" fill-opacity="0.1"/>
</g>
</svg>
