<svg width="355" height="504" viewBox="0 0 355 504" fill="none" xmlns="http://www.w3.org/2000/svg">
<path d="M189.133 31.9369C201.007 31.9369 210.633 41.5627 210.633 53.4369V54.6331C214.668 70.1288 219.622 102.489 214.322 107.665H180.005C180.005 107.657 180.005 107.648 180.004 107.639H178.883C167.009 107.639 157.383 98.0131 157.383 86.139V53.4369C157.383 41.5627 167.009 31.9369 178.883 31.9369H189.133Z" fill="#1F0D05"/>
<path fill-rule="evenodd" clip-rule="evenodd" d="M184.524 89.0025C192.186 93.6193 199.715 95.85 203.25 94.9393C212.112 92.6559 212.927 60.2484 206.07 47.4723C199.212 34.6962 163.961 29.1276 162.184 54.441C161.567 63.2265 165.258 71.067 170.71 77.4648L160.933 123.016H189.333L184.524 89.0025Z" fill="#B28B67"/>
<path fill-rule="evenodd" clip-rule="evenodd" d="M158.426 54.5888C159.251 53.7738 160.048 52.9853 160.84 52.2795L160.802 51.36C160.802 51.36 169.715 33.1197 183.418 33.1197C197.109 33.1197 201.439 39.4818 205.119 44.8899L205.129 44.9045C203.204 51.5073 197.402 54.1787 190.84 57.2C188.016 58.5005 185.05 59.8659 182.193 61.6375C181.073 60.7285 179.646 60.1837 178.092 60.1837C174.497 60.1837 171.583 63.0964 171.583 66.6894C171.583 70.2823 174.497 73.195 178.092 73.195C178.191 73.195 178.289 73.1928 178.387 73.1884C179.696 87.2383 179.172 103.283 175.272 107.091H140.955C139.97 89.9827 144.398 85.1022 148.922 80.115C153.179 75.4225 157.522 70.6355 157.522 55.4788C157.828 55.1805 158.128 54.883 158.426 54.589L158.426 54.5889L158.426 54.5888Z" fill="#1F0D05"/>
<path fill-rule="evenodd" clip-rule="evenodd" d="M158.567 221.192L216.647 368.134L255.601 492.36H270.983L211.431 221.192L158.567 221.192Z" fill="#997659"/>
<path fill-rule="evenodd" clip-rule="evenodd" d="M146.871 221.192C146.253 272.828 137.233 342.348 135.792 345.567C134.351 348.786 36.2998 427.431 36.2998 427.431L46.8944 438.763C46.8944 438.763 162.586 371.335 167.94 362.342C173.293 353.349 190.723 270.592 204.717 221.192H146.871Z" fill="#B28B67"/>
<path fill-rule="evenodd" clip-rule="evenodd" d="M37.894 424.926C37.5748 423.8 36.3909 423.132 35.2887 423.528C32.921 424.378 29.1509 425.864 27.5294 427.224C25.0774 429.281 21.0588 434.043 21.0588 434.043C23.4456 436.886 63.9598 485.149 63.9598 485.149C63.9598 485.149 72.2207 481.615 69.1431 476.882C66.0655 472.15 64.1057 468.956 64.1057 468.956L54.7078 436.135C54.5527 435.594 53.981 435.287 53.4438 435.457L48.2772 437.095C48.2772 437.095 43.0872 434.678 41.0019 432.193C39.6578 430.592 38.5276 427.162 37.894 424.926Z" fill="#E4E4E4"/>
<path fill-rule="evenodd" clip-rule="evenodd" d="M252.217 485.141C251.149 484.661 249.877 485.138 249.472 486.237C248.601 488.596 247.317 492.439 247.317 494.555C247.317 497.754 248.383 503.892 248.383 503.892C252.096 503.892 315.125 503.892 315.125 503.892C315.125 503.892 317.727 495.295 312.122 494.61C306.517 493.924 302.809 493.372 302.809 493.372L271.616 479.471C271.101 479.242 270.499 479.483 270.284 480.003L268.218 485.013C268.218 485.013 263.029 487.433 259.785 487.433C257.694 487.433 254.338 486.093 252.217 485.141Z" fill="#E4E4E4"/>
<path fill-rule="evenodd" clip-rule="evenodd" d="M197.617 479.565L270.752 471.631L216.55 221.192H151.046L197.617 479.565Z" fill="#101030"/>
<path fill-rule="evenodd" clip-rule="evenodd" d="M51.4276 409.147L99.4 465.906C99.4 465.906 175.192 383.162 187.774 357.924C200.356 332.687 210.395 221.192 210.395 221.192H136.649C136.649 221.192 131.165 319.281 129.256 323.845C127.347 328.41 51.4276 409.147 51.4276 409.147Z" fill="#191847"/>
<path fill-rule="evenodd" clip-rule="evenodd" d="M289.537 233.772L251.791 206.065L243.447 226.684L280.826 242.177C291.397 254.59 297.308 259.764 298.559 257.701C299.614 255.961 298.79 254.332 298.03 252.832C297.438 251.663 296.886 250.572 297.293 249.567C298.221 247.273 305.322 247.515 312.051 248.032C318.78 248.549 316.819 245.556 315.197 244.079C308.328 239.969 299.775 236.533 289.537 233.772ZM91.5875 282.592C95.0553 275.56 106.864 207.022 106.864 207.022L131.593 207.119C131.593 207.119 108.69 281.024 106.864 285.546C104.493 291.42 108.521 299.955 111.252 305.742C111.675 306.637 112.066 307.467 112.398 308.211C108.609 309.906 106.788 307.857 104.869 305.697C102.701 303.257 100.407 300.675 95.0074 303.187C92.9212 304.157 90.9471 305.304 89.0184 306.424C82.3562 310.295 76.236 313.851 67.9104 308.716C66.5904 307.902 65.144 304.837 68.6387 302.442C77.3454 296.474 89.8923 286.03 91.5875 282.592Z" fill="#B28B67"/>
<path fill-rule="evenodd" clip-rule="evenodd" d="M177.139 103.3L187.372 101.546C225.337 134.329 240.931 197.309 287.467 230.672L276.266 244.551C195.534 234.559 175.524 157.738 177.139 103.3Z" fill="#00101B"/>
<path fill-rule="evenodd" clip-rule="evenodd" d="M132.533 231.838C132.533 231.838 194.076 231.838 223.072 231.838C227.209 231.838 226.429 225.866 225.831 222.853C218.929 188.077 191.986 150.59 191.986 101.087L165.87 96.9933C144.269 131.72 136.799 174.475 132.533 231.838Z" fill="#DDE3E9"/>
<path fill-rule="evenodd" clip-rule="evenodd" d="M122.353 256.678C118.284 266.446 114.294 274.97 110.534 281.517H91.1167C89.0276 213.999 114.6 162.046 136.002 130.72C131.25 130.38 126.961 128.393 124.25 123.502C114.705 106.286 118.152 96.8069 128.353 93.6912C133.962 91.9778 139.238 93.1473 145.553 94.5472C150.72 95.6927 156.584 96.9925 163.896 96.9934C163.899 96.9934 163.901 96.9934 163.904 96.9934C164.612 96.9934 165.257 97.0408 165.842 97.1316L174.508 97.6259C174.508 97.6259 209.693 216.822 193.916 256.678H122.353Z" fill="#00101B"/>
<path d="M138.435 213.45C140.396 230.464 143.662 247.553 149.1 256.677H122.35C127.689 243.86 133.166 228.9 138.435 213.45Z" fill="black" fill-opacity="0.1"/>
</svg>
