<svg width="466" height="569" viewBox="0 0 466 569" fill="none" xmlns="http://www.w3.org/2000/svg">
<path fill-rule="evenodd" clip-rule="evenodd" d="M266.5 36.0255C278.374 36.0255 288 45.6514 288 57.5255V99.9193C288 111.793 278.374 121.419 266.5 121.419H262.512C262.511 121.429 262.511 121.439 262.51 121.449H223.844C217.872 115.61 223.454 79.1034 228 61.6249V57.5255C228 45.6514 237.626 36.0255 249.5 36.0255H266.5Z" fill="#1F0D05"/>
<path fill-rule="evenodd" clip-rule="evenodd" d="M257.419 100.397C248.785 105.605 240.302 108.121 236.32 107.094C226.334 104.518 225.416 67.9615 233.142 53.5498C240.869 39.1381 280.589 32.8566 282.591 61.4107C283.286 71.321 279.128 80.1652 272.984 87.382L284 138.765H252L257.419 100.397Z" fill="#B28B67"/>
<path fill-rule="evenodd" clip-rule="evenodd" d="M286.825 61.5775C285.896 60.6581 284.997 59.7686 284.105 58.9725L284.148 57.9353C284.148 57.9353 274.105 37.3598 258.665 37.3598C243.239 37.3598 238.36 44.5364 234.213 50.6369L234.202 50.6533C236.371 58.1015 242.908 61.1149 250.302 64.5229C255.32 66.8359 260.732 69.3307 265.441 73.5172C262.774 90.6828 262.578 115.653 267.844 120.802H306.51C307.62 101.503 302.631 95.9972 297.534 90.3716C292.737 85.0783 287.844 79.6785 287.844 62.5813C287.5 62.2449 287.16 61.9094 286.825 61.5778L286.825 61.5775Z" fill="#1F0D05"/>
<path fill-rule="evenodd" clip-rule="evenodd" d="M378.667 305.55C387.503 305.55 394.667 312.713 394.667 321.55V455C394.667 463.837 387.503 471 378.667 471H214.667C205.83 471 198.667 463.837 198.667 455V321.55C198.667 312.713 205.83 305.55 214.667 305.55H378.667ZM353.333 342.909C355.542 342.909 357.333 344.7 357.333 346.909V429.64C357.333 431.849 355.542 433.64 353.333 433.64H240C237.791 433.64 236 431.849 236 429.64V346.909C236 344.7 237.791 342.909 240 342.909H353.333Z" fill="#C5CFD6"/>
<path fill-rule="evenodd" clip-rule="evenodd" d="M66.4547 464.329C92.7426 432.205 110.53 408.39 119.816 392.883C135.716 366.332 148.729 342.707 152.836 333.682C162.629 312.161 130.291 302.084 122.972 312.122C111.895 327.315 88.2373 375.123 52 455.546L66.4547 464.329Z" fill="#B28B67"/>
<path fill-rule="evenodd" clip-rule="evenodd" d="M120.323 454.989L169.246 331.75C179.71 309.285 129.179 294.518 121.489 304.973C104.03 328.709 62.5349 422.344 57.3333 429.416L120.323 454.989Z" fill="#101030"/>
<path fill-rule="evenodd" clip-rule="evenodd" d="M250.623 430.274C241.093 416.363 206.429 369.561 187.548 350.196C182.123 344.631 176.829 339.29 171.822 334.313C156.939 319.519 127.302 344.385 142.157 357.859C179.153 391.417 233.132 436.718 237.642 440.758C243.963 446.419 256.612 439.017 250.623 430.274Z" fill="#B28B67"/>
<path fill-rule="evenodd" clip-rule="evenodd" d="M244.874 423.959C245.555 423.006 246.895 422.783 247.797 423.529C249.96 425.318 253.569 428.481 254.801 430.617C256.604 433.742 259.023 440.34 259.023 440.34C255.4 442.433 193.896 477.968 193.896 477.968C193.896 477.968 186.512 471.036 191.595 467.206C196.678 463.376 199.984 460.746 199.984 460.746L222.665 429.475C222.996 429.019 223.638 428.926 224.084 429.27L229.027 433.079C229.027 433.079 235.454 432.518 238.62 430.689C240.734 429.467 243.361 426.077 244.874 423.959Z" fill="#E4E4E4"/>
<path fill-rule="evenodd" clip-rule="evenodd" d="M74.7287 457.74C75.7949 457.255 77.0677 457.733 77.476 458.831C78.4549 461.462 80 466.006 80 468.472C80 472.082 78.7983 479.006 78.7983 479.006C74.6145 479.006 3.59593 479.006 3.59593 479.006C3.59593 479.006 0.66456 469.308 6.98024 468.535C13.2959 467.761 17.4733 467.138 17.4733 467.138L52.7395 451.405C53.2542 451.176 53.8569 451.416 54.0715 451.938L56.4491 457.709C56.4491 457.709 62.2957 460.439 65.9511 460.439C68.3916 460.439 72.3603 458.818 74.7287 457.74Z" fill="#E4E4E4"/>
<path fill-rule="evenodd" clip-rule="evenodd" d="M186.851 337.906C186.851 337.906 247.844 327.962 268.559 324.307C307.923 317.361 319.402 296.163 312.615 249.913L240.088 249.913C225.691 254.074 119.777 301.376 119.777 301.376C107.073 307.686 109.439 326.294 111.761 332.425C111.903 332.8 176.01 442.597 176.01 442.597L235.341 404.774L186.739 342.363C186.739 342.363 184.814 338.482 186.851 337.906Z" fill="#191847"/>
<path fill-rule="evenodd" clip-rule="evenodd" d="M139.094 263.7L181.625 232.447L191.027 255.704L148.91 273.181C136.999 287.183 130.338 293.02 128.928 290.692C127.74 288.73 128.669 286.892 129.525 285.2C130.191 283.881 130.814 282.651 130.356 281.518C129.309 278.93 121.308 279.202 113.726 279.786C106.144 280.369 108.354 276.993 110.182 275.326C117.921 270.69 127.559 266.815 139.094 263.7ZM362.136 318.77C358.229 310.837 344.923 233.525 344.923 233.525L317.06 233.635C317.06 233.635 342.866 317.001 344.923 322.102C347.595 328.728 343.056 338.356 339.979 344.884C339.502 345.894 339.061 346.83 338.687 347.669C342.957 349.581 345.009 347.27 347.171 344.833C349.614 342.081 352.198 339.169 358.283 342.001C360.633 343.096 362.858 344.39 365.031 345.654C372.538 350.02 379.434 354.031 388.815 348.239C390.302 347.321 391.932 343.863 387.994 341.161C378.184 334.429 364.046 322.648 362.136 318.77Z" fill="#B28B67"/>
<path fill-rule="evenodd" clip-rule="evenodd" d="M265.74 116.525L254.211 114.546C211.433 151.526 193.862 222.569 141.427 260.204L154.048 275.859C245.013 264.588 267.56 177.932 265.74 116.525Z" fill="#00101B"/>
<path fill-rule="evenodd" clip-rule="evenodd" d="M316 261.518C316 261.518 246.656 261.518 213.985 261.518C209.323 261.518 210.202 254.782 210.875 251.384C218.653 212.155 249.012 169.869 249.012 114.028L278.438 109.411C302.777 148.583 311.194 196.812 316 261.518Z" fill="#DDE3E9"/>
<path fill-rule="evenodd" clip-rule="evenodd" d="M327.513 289.538C332.098 300.558 336.594 310.173 340.83 317.558H362.709C365.063 241.396 336.249 182.791 312.134 147.455C317.488 147.072 322.321 144.83 325.376 139.314C336.131 119.893 332.247 109.2 320.753 105.686C314.432 103.753 308.488 105.072 301.373 106.651C295.55 107.944 288.943 109.41 280.704 109.411C280.701 109.411 280.698 109.411 280.696 109.411C279.897 109.411 279.171 109.464 278.511 109.567L268.747 110.124C268.747 110.124 229.102 244.58 246.879 289.538H327.513Z" fill="#00101B"/>
<path fill-rule="evenodd" clip-rule="evenodd" d="M327.471 289.538C321.455 275.08 315.287 258.205 309.35 240.776C307.14 259.969 303.46 279.246 297.333 289.538H327.471Z" fill="black" fill-opacity="0.1"/>
</svg>
